<svg width="32" height="32" viewBox="0 0 32 32" fill="none" xmlns="http://www.w3.org/2000/svg">
<path d="M26.2273 6.69176C26.2192 6.67592 26.2056 6.66352 26.1891 6.65676C24.283 5.78219 22.2714 5.15855 20.2048 4.80146C20.186 4.79797 20.1667 4.80048 20.1494 4.80865C20.1321 4.81682 20.1179 4.83022 20.1087 4.84696C19.8348 5.3441 19.5861 5.85475 19.3637 6.37696C17.136 6.0388 14.87 6.0388 12.6424 6.37696C12.4185 5.85342 12.1658 5.34265 11.8856 4.84696C11.876 4.83059 11.8617 4.81749 11.8445 4.80938C11.8274 4.80126 11.8082 4.7985 11.7894 4.80146C9.72261 5.1578 7.71094 5.78149 5.80502 6.65681C5.78871 6.66372 5.77494 6.67553 5.76562 6.69061C1.95417 12.3825 0.910074 17.9345 1.42227 23.4177C1.42372 23.4311 1.42784 23.4441 1.43441 23.4559C1.44099 23.4677 1.44987 23.4781 1.46052 23.4864C3.6799 25.1297 6.16229 26.384 8.80177 27.1959C8.82036 27.2014 8.84021 27.2012 8.85865 27.1951C8.87709 27.1891 8.89324 27.1775 8.90492 27.1621C9.47183 26.3907 9.97415 25.5739 10.4068 24.72C10.4127 24.7082 10.4161 24.6954 10.4167 24.6823C10.4174 24.6691 10.4152 24.656 10.4104 24.6438C10.4056 24.6316 10.3982 24.6205 10.3888 24.6113C10.3794 24.6022 10.3682 24.5951 10.3558 24.5906C9.5637 24.2875 8.79684 23.9221 8.06242 23.4979C8.04908 23.4901 8.03788 23.4791 8.0298 23.4659C8.02172 23.4527 8.01702 23.4377 8.0161 23.4222C8.01519 23.4068 8.01809 23.3913 8.02456 23.3773C8.03102 23.3632 8.04085 23.351 8.05317 23.3416C8.20771 23.2262 8.35957 23.1072 8.50862 22.9848C8.5217 22.974 8.53752 22.9671 8.5543 22.9648C8.57109 22.9626 8.58817 22.965 8.60362 22.972C13.4151 25.1678 18.6241 25.1678 23.3786 22.972C23.3941 22.9646 23.4114 22.9618 23.4284 22.9638C23.4454 22.9659 23.4615 22.9728 23.4748 22.9836C23.624 23.1067 23.7763 23.2261 23.9314 23.3416C23.9438 23.3509 23.9537 23.363 23.9603 23.3771C23.9669 23.3911 23.9699 23.4065 23.9691 23.4219C23.9683 23.4374 23.9637 23.4524 23.9557 23.4656C23.9477 23.4789 23.9366 23.49 23.9233 23.4979C23.1906 23.9257 22.423 24.2908 21.6288 24.5894C21.6165 24.5941 21.6053 24.6013 21.5959 24.6107C21.5866 24.62 21.5793 24.6312 21.5746 24.6435C21.5699 24.6558 21.5678 24.669 21.5686 24.6822C21.5693 24.6953 21.5728 24.7082 21.5788 24.72C22.0187 25.5691 22.5203 26.3849 23.0795 27.1607C23.0909 27.1766 23.1069 27.1886 23.1255 27.1948C23.144 27.2011 23.164 27.2014 23.1827 27.1957C25.8269 26.3866 28.3136 25.1322 30.5358 23.4864C30.5466 23.4785 30.5556 23.4684 30.5622 23.4567C30.5688 23.4451 30.5728 23.4321 30.574 23.4188C31.1872 17.0797 29.5474 11.5732 26.2273 6.69176ZM11.1253 20.079C9.67672 20.079 8.48312 18.7496 8.48312 17.117C8.48312 15.4844 9.65357 14.155 11.1253 14.155C12.6086 14.155 13.7906 15.496 13.7675 17.1169C13.7675 18.7496 12.597 20.079 11.1253 20.079ZM20.8943 20.079C19.4458 20.079 18.2522 18.7496 18.2522 17.117C18.2522 15.4844 19.4226 14.155 20.8943 14.155C22.3777 14.155 23.5597 15.496 23.5365 17.1169C23.5365 18.7496 22.3777 20.079 20.8943 20.079Z" fill="white"/>
</svg>
