<svg width="48" height="48" viewBox="0 0 48 48" fill="none" xmlns="http://www.w3.org/2000/svg">
<path d="M24 4C12.9533 4 4 12.9533 4 24C4 35.0467 12.9533 44 24 44C35.0467 44 44 35.0467 44 24C44 12.9533 35.0467 4 24 4ZM34.3833 31.0733C34.3836 31.155 34.3676 31.2358 34.3364 31.3112C34.3052 31.3867 34.2594 31.4552 34.2016 31.5128C34.1438 31.5705 34.0752 31.6161 33.9997 31.6471C33.9242 31.678 33.8433 31.6938 33.7617 31.6933H31.15C31.0685 31.6936 30.9878 31.6777 30.9125 31.6466C30.8372 31.6155 30.7687 31.5698 30.7111 31.5122C30.6535 31.4546 30.6078 31.3862 30.5767 31.3109C30.5457 31.2355 30.5298 31.1548 30.53 31.0733V23.0267C30.53 22.96 30.4533 22.9267 30.3967 22.9717L24.8633 28.505C24.6319 28.7337 24.3196 28.862 23.9942 28.862C23.6688 28.862 23.3565 28.7337 23.125 28.505L17.5917 22.9717C17.5467 22.9267 17.4583 22.96 17.4583 23.0267V31.0733C17.4586 31.1548 17.4427 31.2355 17.4116 31.3109C17.3805 31.3862 17.3348 31.4546 17.2772 31.5122C17.2196 31.5698 17.1512 31.6155 17.0759 31.6466C17.0005 31.6777 16.9198 31.6936 16.8383 31.6933H14.2267C14.1452 31.6936 14.0645 31.6777 13.9891 31.6466C13.9138 31.6155 13.8454 31.5698 13.7878 31.5122C13.7302 31.4546 13.6845 31.3862 13.6534 31.3109C13.6223 31.2355 13.6064 31.1548 13.6067 31.0733V16.9283C13.6067 16.585 13.8833 16.3083 14.2267 16.3083H16.02C16.3485 16.3108 16.6629 16.4425 16.895 16.675L23.7783 23.5583C23.8063 23.5876 23.84 23.6108 23.8772 23.6267C23.9144 23.6426 23.9545 23.6508 23.995 23.6508C24.0355 23.6508 24.0756 23.6426 24.1128 23.6267C24.15 23.6108 24.1837 23.5876 24.2117 23.5583L31.095 16.675C31.3283 16.4417 31.6367 16.3083 31.97 16.3083H33.7617C34.105 16.3083 34.3817 16.585 34.3817 16.9283L34.3833 31.0733Z" fill="#F55A5A"/>
</svg>
