<svg width="32" height="32" viewBox="0 0 32 32" fill="none" xmlns="http://www.w3.org/2000/svg">
<path d="M28.6116 4.46319L3.07086 14.3188C1.63153 14.8742 1.66759 15.6814 3.14425 16.1195L9.31543 17.9506L11.8246 25.4166C12.153 26.394 13.0112 26.6001 13.7453 25.8729L16.9823 22.6663L23.3721 27.3488C24.2023 27.9572 25.0558 27.637 25.2799 26.6273L29.9427 5.6165C30.1662 4.60961 29.571 4.09295 28.6116 4.46319ZM24.7249 9.21365L13.8305 18.9202C13.6346 19.0948 13.4573 19.4406 13.4301 19.6967L12.9492 24.2185C12.8951 24.7262 12.7201 24.7472 12.5586 24.2605L10.4506 17.9062C10.3681 17.6576 10.4811 17.3529 10.7013 17.2208L24.5173 8.93393C25.3978 8.40586 25.4915 8.53057 24.7249 9.21365Z" fill="white"/>
</svg>
