<svg width="32" height="32" viewBox="0 0 32 32" fill="none" xmlns="http://www.w3.org/2000/svg">
<g clip-path="url(#clip0_3235_50137)">
<rect opacity="0.01" x="0.00390625" y="-0.000244141" width="32" height="32" fill="black"/>
<path fill-rule="evenodd" clip-rule="evenodd" d="M4.11936 6.39978H27.8908C28.3965 6.39978 28.8051 6.78978 28.8051 7.27251V24.7271C28.8051 25.2098 28.3965 25.5998 27.8908 25.5998H4.11936C3.61365 25.5998 3.20508 25.2098 3.20508 24.7271V7.27251C3.20508 6.78978 3.61365 6.39978 4.11936 6.39978ZM16.5682 16.0652L25.5824 9.36976C25.6739 9.30158 25.6882 9.17885 25.6196 9.09431C25.5796 9.04522 25.5196 9.01794 25.4567 9.01794H6.91958C6.8053 9.01794 6.71387 9.10522 6.71387 9.21431C6.71387 9.27431 6.74244 9.33158 6.79387 9.36976L15.811 16.0652C16.0339 16.2316 16.3453 16.2316 16.5682 16.0652Z" fill="white"/>
</g>
<defs>
<clipPath id="clip0_3235_50137">
<rect width="32" height="32" fill="white"/>
</clipPath>
</defs>
</svg>
